<?xml version="1.0" encoding="utf-8"?>
<!-- Generator: Adobe Illustrator 24.3.0, SVG Export Plug-In . SVG Version: 6.00 Build 0)  -->
<svg version="1.1" id="Calque_1" xmlns="http://www.w3.org/2000/svg" xmlns:xlink="http://www.w3.org/1999/xlink" x="0px" y="0px"
	 viewBox="0 0 511.1 152.1" style="enable-background:new 0 0 511.1 152.1;" xml:space="preserve">
<style type="text/css">
	.st0{fill:none;stroke:#004F98;stroke-width:6.5989;stroke-linecap:round;stroke-miterlimit:3.8637;}
	.st1{fill-rule:evenodd;clip-rule:evenodd;fill:#CF0017;}
	.st2{fill:none;stroke:#CF0017;stroke-width:1.1832;stroke-miterlimit:3.8637;}
	.st3{fill:#CF0017;}
	.st4{fill:#004387;}
	.st5{fill:#FFFFFF;}
	.st6{fill-rule:evenodd;clip-rule:evenodd;fill:#FFFFFF;}
	.st7{fill-rule:evenodd;clip-rule:evenodd;fill:#004387;}
	.st8{fill:#C3CCE7;}
</style>
<g>
	<line class="st0" x1="7.3" y1="81.1" x2="399.2" y2="81.1"/>
	<path class="st1" d="M84.8,116.7c-3.2-0.7-6.6-1-10.2-0.8c3.9-2.9,7.9-5.7,12.9-7.9c1.7-0.7,8.2-3.3,10.1-3.3c1,0,1.3,0.6,1.1,1.1
		c-0.3,1.5-2.3,2.8-3.8,4L84.8,116.7L84.8,116.7z M64.7,123.7c1.6,0.2,3.1,0.5,4.9,0.5c2,0,3.9-0.2,5.8-0.5c2.8,1,5.1,1.6,8.5,1.6
		c13.4,0,25.6-5.9,35.9-11.7l-0.2-3.7c-14.6,7.5-17.4,8.8-27.9,8.3c15.4-8,22.6-13.6,23.5-18.1c0.4-2.1-1.1-3.8-4.5-3.8
		c-6.7,0-20.2,5.4-26,7.9l-0.2-0.2c3.2-3.7,7.6-6.7,12.3-9.6c2.2-1.4,9.4-5.3,9.7-7.1c0.3-1.5-3.6-1.9-5.3-1.9
		c-4.7,0-7.6,2.2-10.7,4.5L53.3,113l-0.2,3.8l21.9-12.3l0.2,0.2c-9.7,8.9-17.2,15.6-23.9,20.9c-6,4.7-9.5,8.8-10.1,12.8
		c-0.3,1.5,0,3.7,2.9,3.7c2.3,0,5-2.2,6.2-3.4L64.7,123.7L64.7,123.7z"/>
	<path class="st2" d="M84.8,116.7c-3.2-0.7-6.6-1-10.2-0.8c3.9-2.9,7.9-5.7,12.9-7.9c1.7-0.7,8.2-3.3,10.1-3.3c1,0,1.3,0.6,1.1,1.1
		c-0.3,1.5-2.3,2.8-3.8,4L84.8,116.7L84.8,116.7z M64.7,123.7c1.6,0.2,3.1,0.5,4.9,0.5c2,0,3.9-0.2,5.8-0.5c2.8,1,5.1,1.6,8.5,1.6
		c13.4,0,25.6-5.9,35.9-11.7l-0.2-3.7c-14.6,7.5-17.4,8.8-27.9,8.3c15.4-8,22.6-13.6,23.5-18.1c0.4-2.1-1.1-3.8-4.5-3.8
		c-6.7,0-20.2,5.4-26,7.9l-0.2-0.2c3.2-3.7,7.6-6.7,12.3-9.6c2.2-1.4,9.4-5.3,9.7-7.1c0.3-1.5-3.6-1.9-5.3-1.9
		c-4.7,0-7.6,2.2-10.7,4.5L53.3,113l-0.2,3.8l21.9-12.3l0.2,0.2c-9.7,8.9-17.2,15.6-23.9,20.9c-6,4.7-9.5,8.8-10.1,12.8
		c-0.3,1.5,0,3.7,2.9,3.7c2.3,0,5-2.2,6.2-3.4L64.7,123.7L64.7,123.7z"/>
	<path class="st1" d="M164.1,109.9c-7.2,3.4-18.7,9.3-27.5,9.3c-4,0-7.7-1.1-6.9-4.1l0.6-1.8c24.7-5.1,31.9-11.1,32.7-15.1
		c0.6-3.2-4.2-3.9-8.2-3.9c-16.1-0.1-36.1,10.8-37.6,21.4c-0.8,5.4,2.4,10.6,11.5,10.6c12.2,0,27.3-7.6,35.9-13.4L164.1,109.9
		L164.1,109.9z M131.8,109.3c4.4-5.4,12.3-9.3,18.7-10.3c0.9-0.2,1.4,0.3,1.3,0.9C151.6,101.3,143.2,106.9,131.8,109.3L131.8,109.3z
		"/>
	<path class="st2" d="M164.1,109.9c-7.2,3.4-18.7,9.3-27.5,9.3c-4,0-7.7-1.1-6.9-4.1l0.6-1.8c24.7-5.1,31.9-11.1,32.7-15.1
		c0.6-3.2-4.2-3.9-8.2-3.9c-16.1-0.1-36.1,10.8-37.6,21.4c-0.8,5.4,2.4,10.6,11.5,10.6c12.2,0,27.3-7.6,35.9-13.4L164.1,109.9
		L164.1,109.9z M131.8,109.3c4.4-5.4,12.3-9.3,18.7-10.3c0.9-0.2,1.4,0.3,1.3,0.9C151.6,101.3,143.2,106.9,131.8,109.3L131.8,109.3z
		"/>
	<path class="st1" d="M183.8,101.9c0.2,2.8,0.3,5,0.3,6.7c-1.3,4.7-3.5,6.1-11.5,9.1c-1.9-2.1-4.2-4.6-8.7-4.8L183.8,101.9
		L183.8,101.9z M198.1,114.9c-6.5,3.1-11.9,5.4-19.7,4.5c8.5-3.2,17.6-8.1,18.9-14.8c0.7-3.6-0.7-6.3-0.6-9.4c0.1-2.3-0.5-3-4.3-3
		c-4.5,0-7.3,2.6-8,5.3l-29.9,16.2c-1.1,0.6-3.3,1.8-3.5,2.8c-0.1,0.7,0.6,1.5,1.8,1.5c1.1,0,2.1-0.6,2.9-1.1
		c1.1,5.9,9.7,9,17.9,9.3c9.8,0.3,24.7-7.1,33.2-12l-0.7-3.1L198.1,114.9L198.1,114.9z"/>
	<path class="st2" d="M183.8,101.9c0.2,2.8,0.3,5,0.3,6.7c-1.3,4.7-3.5,6.1-11.5,9.1c-1.9-2.1-4.2-4.6-8.7-4.8L183.8,101.9
		L183.8,101.9z M198.1,114.9c-6.5,3.1-11.9,5.4-19.7,4.5c8.5-3.2,17.6-8.1,18.9-14.8c0.7-3.6-0.7-6.3-0.6-9.4c0.1-2.3-0.5-3-4.3-3
		c-4.5,0-7.3,2.6-8,5.3l-29.9,16.2c-1.1,0.6-3.3,1.8-3.5,2.8c-0.1,0.7,0.6,1.5,1.8,1.5c1.1,0,2.1-0.6,2.9-1.1
		c1.1,5.9,9.7,9,17.9,9.3c9.8,0.3,24.7-7.1,33.2-12l-0.7-3.1L198.1,114.9L198.1,114.9z"/>
	<path class="st1" d="M247.4,102.6l0.2,0.2c-27.6,16.2-31.4,16-33.9,16.3c-1.9,0.2-2.1-1.2-2.2-1.6
		C212.3,113.5,216.9,108.5,247.4,102.6L247.4,102.6z M238.7,113.6l0.2,0.2c-2,2.2-5.8,6.5-6.3,9.1c-0.4,2.4,1,4.3,5.1,4.3
		c6.1,0,24.3-8.7,30.4-12.7l-0.4-3c-5.8,2.4-13.6,6.5-18.8,6.5c-2,0-3.7-0.6-3.5-2c0.7-3.8,12.6-9.5,13.1-12.1
		c0.3-1.8-0.7-2.7-3-3.3c1.2-0.2,4.5-1.1,4.7-2c0.2-1-1.6-4-7.3-3.9c-14.4,0.2-48.5,10.6-49.9,20.8c-0.6,4.2,5.6,9.6,9.1,9.6
		c2.8,0,11.6-4.2,14.1-5.4L238.7,113.6L238.7,113.6z"/>
	<path class="st2" d="M247.4,102.6l0.2,0.2c-27.6,16.2-31.4,16-33.9,16.3c-1.9,0.2-2.1-1.2-2.2-1.6
		C212.3,113.5,216.9,108.5,247.4,102.6L247.4,102.6z M238.7,113.6l0.2,0.2c-2,2.2-5.8,6.5-6.3,9.1c-0.4,2.4,1,4.3,5.1,4.3
		c6.1,0,24.3-8.7,30.4-12.7l-0.4-3c-5.8,2.4-13.6,6.5-18.8,6.5c-2,0-3.7-0.6-3.5-2c0.7-3.8,12.6-9.5,13.1-12.1
		c0.3-1.8-0.7-2.7-3-3.3c1.2-0.2,4.5-1.1,4.7-2c0.2-1-1.6-4-7.3-3.9c-14.4,0.2-48.5,10.6-49.9,20.8c-0.6,4.2,5.6,9.6,9.1,9.6
		c2.8,0,11.6-4.2,14.1-5.4L238.7,113.6L238.7,113.6z"/>
	<path class="st3" d="M289.6,124.5c-7.4,3.2-28.2,13.5-29.3,19.3c-0.2,1.1,0.7,1.9,2.5,1.9c4.8,0,16.7-5.2,32.2-18.8l28.5-12.8
		l0-3.4l-20.5,8.9l-0.2-0.2l11.4-11.4c1.1-1.1,3.2-2.9,3.4-4.1c0.3-1.4-1.4-4.1-3.9-4.1c-2,0-3.8,1.4-5.1,2.3l-15,9.6
		c-5.7,3.1-13.2,5.3-16.7,5c-1.1,0-1.8-0.2-1.8-0.8c0-5.9,9.5-8.4,17.9-11l15.1-5c1.7-0.7,4.4-1.9,4.7-3.3c0.3-1.8-4.4-2.1-6.2-2
		c-9.6,0.6-38.2,9.2-40.2,19.8c-0.7,3.6,0.5,9.5,7.5,9.5c6.8,0,21.2-7.4,26.3-10.6l0.2,0.2L289.6,124.5L289.6,124.5z"/>
	<path class="st2" d="M289.6,124.5c-7.4,3.2-28.2,13.5-29.3,19.3c-0.2,1.1,0.7,1.9,2.5,1.9c4.8,0,16.7-5.2,32.2-18.8l28.5-12.8
		l0-3.4l-20.5,8.9l-0.2-0.2l11.4-11.4c1.1-1.1,3.2-2.9,3.4-4.1c0.3-1.4-1.4-4.1-3.9-4.1c-2,0-3.8,1.4-5.1,2.3l-15,9.6
		c-5.7,3.1-13.2,5.3-16.7,5c-1.1,0-1.8-0.2-1.8-0.8c0-5.9,9.5-8.4,17.9-11l15.1-5c1.7-0.7,4.4-1.9,4.7-3.3c0.3-1.8-4.4-2.1-6.2-2
		c-9.6,0.6-38.2,9.2-40.2,19.8c-0.7,3.6,0.5,9.5,7.5,9.5c6.8,0,21.2-7.4,26.3-10.6l0.2,0.2L289.6,124.5L289.6,124.5z"/>
	<path class="st1" d="M367.5,109.9c-7.2,3.4-18.7,9.3-27.5,9.3c-4,0-7.7-1.1-6.9-4.1l0.6-1.8c24.7-5.1,31.9-11.1,32.7-15.1
		c0.6-3.2-4.2-3.9-8.2-3.9c-16.1-0.1-36.1,10.8-37.6,21.4c-0.8,5.4,2.4,10.6,11.5,10.6c12.2,0,27.3-7.6,35.9-13.4L367.5,109.9
		L367.5,109.9z M335.2,109.3c4.4-5.4,12.3-9.3,18.7-10.3c0.9-0.2,1.4,0.3,1.3,0.9C355.1,101.3,346.6,106.9,335.2,109.3L335.2,109.3z
		"/>
	<path class="st2" d="M367.5,109.9c-7.2,3.4-18.7,9.3-27.5,9.3c-4,0-7.7-1.1-6.9-4.1l0.6-1.8c24.7-5.1,31.9-11.1,32.7-15.1
		c0.6-3.2-4.2-3.9-8.2-3.9c-16.1-0.1-36.1,10.8-37.6,21.4c-0.8,5.4,2.4,10.6,11.5,10.6c12.2,0,27.3-7.6,35.9-13.4L367.5,109.9
		L367.5,109.9z M335.2,109.3c4.4-5.4,12.3-9.3,18.7-10.3c0.9-0.2,1.4,0.3,1.3,0.9C355.1,101.3,346.6,106.9,335.2,109.3L335.2,109.3z
		"/>
	<path class="st4" d="M414.2,67.3c0-22.7,18.4-41.1,41.1-41.1c22.7,0,41.1,18.4,41.1,41.1c0,22.7-18.4,41.1-41.1,41.1
		C432.5,108.4,414.2,90,414.2,67.3L414.2,67.3z"/>
	<path class="st5" d="M448.6,53.8c7.2,2.9,12.6,9.3,14.1,17.1c1.6-2.6,4.4-4.3,7.6-4.3c4.9,0,8.9,4,8.9,8.9c0,4.9-4,8.9-8.9,8.9
		c-3.2,0-6.1-1.7-7.6-4.3c-1.5,7.8-6.9,14.1-14.1,17l12.9,0v-1.3c2.7,1.2,5.7,1.3,8.9,1.3c12,0,21.6-9.6,21.6-21.6
		c0-12-9.7-21.6-21.6-21.6c-3.2,0-6.1,0.7-8.9,1.9V29.9c-2.1-0.4-4.2-0.5-6.4-0.5c-2.2,0-4.3,0.2-6.4,0.5V53.8L448.6,53.8z"/>
	<path class="st5" d="M461.2,78c0.1-0.8,0.1-1.7,0.1-2.5c0-0.9-0.1-1.7-0.2-2.6h-13c0.3,0.8,0.4,1.7,0.4,2.6c0,0.9-0.1,1.7-0.4,2.5
		H461.2L461.2,78z"/>
	<path class="st5" d="M418.1,75.4c0,12,9.7,21.6,21.6,21.6c3.2,0,6.1-0.6,8.9-1.8c6.3-2.8,11-8.5,12.4-15.5h-13.4
		c-1.5,2.7-4.4,4.6-7.8,4.6c-4.9,0-8.9-4-8.9-8.9c0-4.9,4-8.9,8.9-8.9c3.3,0,6.2,1.8,7.7,4.5h13.5c-1.4-6.9-6.1-12.5-12.3-15.3
		c-2.7-1.2-5.7-1.9-8.9-1.9C427.8,53.8,418.1,63.5,418.1,75.4L418.1,75.4z"/>
	<path class="st5" d="M461.2,78c0.1-0.8,0.1-1.7,0.1-2.5c0-0.9-0.1-1.7-0.2-2.6h-13c0.3,0.8,0.4,1.7,0.4,2.6c0,0.9-0.1,1.7-0.4,2.5
		H461.2L461.2,78z"/>
	<path class="st5" d="M448.6,53.8c7.2,2.9,12.6,9.3,14.1,17.1c1.6-2.6,4.4-4.3,7.6-4.3c4.9,0,8.9,4,8.9,8.9c0,4.9-4,8.9-8.9,8.9
		c-3.2,0-6.1-1.7-7.6-4.3c-1.5,7.8-6.9,14.1-14.1,17l12.9,0v-1.3c2.7,1.2,5.7,1.3,8.9,1.3c12,0,21.6-9.6,21.6-21.6
		c0-12-9.7-21.6-21.6-21.6c-3.2,0-6.1,0.7-8.9,1.9V29.9c-2.1-0.4-4.2-0.5-6.4-0.5c-2.2,0-4.3,0.2-6.4,0.5V53.8L448.6,53.8z"/>
	<polygon class="st4" points="407.8,110.9 502.6,110.9 502.6,128.5 407.8,128.5 407.8,110.9 	"/>
	<path class="st5" d="M427.3,126.8h2.8V119h-5.8v3.1h1.9c-0.2,1.1-1.3,1.6-2.3,1.6c-2.7,0-3.2-2.3-3.2-3.7c0-1-0.1-4.1,2.9-4.1
		c1,0,1.9,0.7,2.1,1.8h4.2c-0.6-3.4-2.9-5.3-6.6-5.3c-3.2,0-7,2.2-7,7.6c0,4,2.6,7.3,6.8,7.3c1.6,0,3.1-0.5,4-1.8L427.3,126.8
		L427.3,126.8z"/>
	<path class="st6" d="M433.2,126.8h4.4v-5h2.3c1.7,0,1.9,1.4,2,2.8c0.1,0.7,0.1,1.5,0.4,2.2h4.4c-0.4-0.7-0.4-2.4-0.5-3.1
		c-0.2-1.8-0.9-3.1-2.1-3.5c1.5-0.5,2.1-2.1,2.1-3.6c0-2.7-2.2-4.1-4.6-4.1h-8.4V126.8L433.2,126.8z M437.6,116h2.1
		c1.7,0,2.2,0.5,2.2,1.4c0,1.3-1.1,1.4-1.9,1.4h-2.3V116L437.6,116z"/>
	<path class="st6" d="M448.6,119.7c0,4.3,2.9,7.5,7.2,7.5c4.3,0,7.2-3.1,7.2-7.5c0-4.3-2.9-7.5-7.2-7.5
		C451.5,112.3,448.6,115.4,448.6,119.7L448.6,119.7z M453,119.7c0-3.2,1.7-3.9,2.8-3.9c1.1,0,2.8,0.7,2.8,3.9c0,3.2-1.7,3.9-2.8,3.9
		C454.7,123.6,453,122.9,453,119.7L453,119.7z"/>
	<path class="st5" d="M478.8,112.6h-4.4v7.8c0,1.5,0,3.3-2.1,3.3c-2.1,0-2.1-1.8-2.1-3.3v-7.8h-4.4v8.7c0,3.9,2.2,5.8,6.5,5.8
		c4.3,0,6.5-1.9,6.5-5.8V112.6L478.8,112.6z"/>
	<path class="st6" d="M482,126.8h4.4v-4.3h2.6c3.3,0,5.6-1.6,5.6-5.1c0-2-1.4-4.9-5.2-4.9H482V126.8L482,126.8z M486.4,116.2h2
		c1.1,0,2.1,0.1,2.1,1.4c0,1.4-1.2,1.5-2.3,1.5h-1.7V116.2L486.4,116.2z"/>
	<path class="st7" d="M411.7,17.4h3c1.1,0,2,0.4,2,1.7c0,1.2-0.8,1.6-2,1.6h-3V17.4L411.7,17.4z M407.9,23.6h6.8
		c3.1,0,5.5-1,5.5-4.4c0-1.6-0.9-2.9-2.5-3.4c1.1-0.6,1.9-1.6,1.9-2.9c0-3-2.7-3.6-5.1-3.6h-6.7V23.6L407.9,23.6z M411.7,12.3h2.9
		c0.8,0,1.5,0.3,1.5,1.4c0,1-0.9,1.4-1.5,1.4h-2.9V12.3L411.7,12.3z"/>
	<polygon class="st4" points="421.6,23.6 425.3,23.6 425.3,9.4 421.6,9.4 421.6,23.6 	"/>
	<polygon class="st4" points="427.1,23.6 437.4,23.6 437.4,20.5 430.8,20.5 430.8,9.4 427.1,9.4 427.1,23.6 	"/>
	<path class="st7" d="M444.2,13.4L444.2,13.4l1.6,5h-3.2L444.2,13.4L444.2,13.4z M437,23.6h3.8l0.9-2.6h5l0.9,2.6h3.9l-5.3-14.2
		h-3.8L437,23.6L437,23.6z"/>
	<polygon class="st4" points="451.7,23.6 455.1,23.6 455.1,14.8 455.2,14.8 460.1,23.6 463.9,23.6 463.9,9.4 460.5,9.4 460.5,18.2 
		460.4,18.2 455.5,9.4 451.7,9.4 451.7,23.6 	"/>
	<path class="st4" d="M478.9,14.5c-0.1-3.4-3.4-5.4-6.5-5.4c-4.3,0-7.1,3.3-7.1,7.4c0,4.1,2.8,7.4,7.1,7.4c3.6,0,6.3-2.2,6.5-5.8
		h-3.7c-0.1,1.6-1.1,2.6-2.9,2.6c-2.4,0-3.3-2.1-3.3-4.2c0-2.1,0.9-4.2,3.3-4.2c1.6,0,2.7,0.8,2.9,2.2H478.9L478.9,14.5z"/>
	<polygon class="st4" points="480,23.6 483.7,23.6 483.7,9.4 480,9.4 480,23.6 	"/>
	<path class="st7" d="M491.3,13.4L491.3,13.4l1.6,5h-3.2L491.3,13.4L491.3,13.4z M484.1,23.6h3.8l0.9-2.6h5l0.9,2.6h3.9l-5.3-14.2
		h-3.8L484.1,23.6L484.1,23.6z"/>
	<polygon class="st4" points="498.8,23.6 502.5,23.6 502.5,9.4 498.8,9.4 498.8,23.6 	"/>
	<polygon class="st8" points="407.8,26 502.6,26 502.6,27.5 407.8,27.5 407.8,26 	"/>
	<polygon class="st8" points="407.8,31.3 407.8,29.9 502.6,29.9 502.6,31.3 407.8,31.3 	"/>
	<polygon class="st8" points="407.8,35.2 407.8,33.7 502.6,33.7 502.6,35.2 407.8,35.2 	"/>
	<polygon class="st8" points="407.8,39.1 407.8,37.6 502.6,37.6 502.6,39.1 407.8,39.1 	"/>
	<polygon class="st8" points="407.8,43 407.8,41.5 502.6,41.5 502.6,43 407.8,43 	"/>
	<polygon class="st8" points="407.8,46.8 407.8,45.3 502.6,45.3 502.6,46.8 407.8,46.8 	"/>
	<polygon class="st8" points="407.8,50.7 407.8,49.2 502.6,49.2 502.6,50.7 407.8,50.7 	"/>
	<polygon class="st8" points="407.8,54.6 407.8,53.1 502.6,53.1 502.6,54.6 407.8,54.6 	"/>
	<polygon class="st8" points="407.8,58.4 407.8,56.9 502.6,56.9 502.6,58.4 407.8,58.4 	"/>
	<polygon class="st8" points="407.8,62.3 407.8,60.8 502.6,60.8 502.6,62.3 407.8,62.3 	"/>
	<polygon class="st8" points="407.8,66.2 407.8,64.7 502.6,64.7 502.6,66.2 407.8,66.2 	"/>
	<polygon class="st8" points="407.8,70 407.8,68.6 502.6,68.6 502.6,70 407.8,70 	"/>
	<polygon class="st8" points="407.8,73.9 407.8,72.4 502.6,72.4 502.6,73.9 407.8,73.9 	"/>
	<polygon class="st8" points="407.8,77.8 407.8,76.3 502.6,76.3 502.6,77.8 407.8,77.8 	"/>
	<polygon class="st8" points="407.8,81.6 407.8,80.2 502.6,80.2 502.6,81.6 407.8,81.6 	"/>
	<polygon class="st8" points="407.8,85.5 407.8,84 502.6,84 502.6,85.5 407.8,85.5 	"/>
	<polygon class="st8" points="407.8,89.4 407.8,87.9 502.6,87.9 502.6,89.4 407.8,89.4 	"/>
	<polygon class="st8" points="407.8,93.3 407.8,91.8 502.6,91.8 502.6,93.3 407.8,93.3 	"/>
	<polygon class="st8" points="407.8,97.1 407.8,95.6 502.6,95.6 502.6,97.1 407.8,97.1 	"/>
	<polygon class="st8" points="407.8,101 407.8,99.5 502.6,99.5 502.6,101 407.8,101 	"/>
	<polygon class="st8" points="407.8,104.9 407.8,103.4 502.6,103.4 502.6,104.9 407.8,104.9 	"/>
	<polygon class="st8" points="407.8,107.2 502.6,107.2 502.6,108.7 407.8,108.7 407.8,107.2 	"/>
	<path class="st7" d="M19.7,20.4v14.3H35c2.7,0,4.9-0.5,6.6-1.6c1.7-1.1,2.6-3,2.6-5.7c0-3-1.1-5-3.4-6c-1.9-0.7-4.4-1-7.4-1H19.7
		L19.7,20.4z M19.7,45.4v17.3H35c2.7,0,4.9-0.4,6.4-1.1c2.8-1.4,4.1-4.1,4.1-8.1c0-3.4-1.3-5.7-4-6.9c-1.5-0.7-3.6-1.1-6.3-1.1H19.7
		L19.7,45.4z M53.7,16.1c1.9,2.8,2.9,6.1,2.9,9.9c0,4-1,7.1-2.9,9.5c-1.1,1.3-2.6,2.6-4.7,3.7c3.2,1.2,5.6,3.1,7.2,5.7
		c1.6,2.6,2.4,5.8,2.4,9.5c0,3.8-0.9,7.3-2.8,10.3c-1.2,2-2.7,3.7-4.4,5.1c-2,1.6-4.4,2.7-7.1,3.3c-2.7,0.6-5.6,0.9-8.8,0.9H7.3V9.2
		h30.2C45.1,9.3,50.5,11.6,53.7,16.1L53.7,16.1z"/>
	<polygon class="st4" points="76.6,74 63.7,74 63.7,9.2 76.6,9.2 76.6,74 	"/>
	<polygon class="st4" points="83.9,9.2 96.9,9.2 96.9,62.3 127.7,62.3 127.7,74 83.9,74 83.9,9.2 	"/>
	<path class="st7" d="M152.4,49.5h15.8L160.4,24L152.4,49.5L152.4,49.5z M153.2,9.2h14.7l22,64.8h-14.1l-4-13.3h-22.9L144.6,74H131
		L153.2,9.2L153.2,9.2z"/>
	<polygon class="st4" points="193.3,9.2 206.9,9.2 231.7,54.4 231.7,9.2 243.8,9.2 243.8,74 230.8,74 205.4,27.9 205.4,74 193.3,74 
		193.3,9.2 	"/>
	<path class="st4" d="M257.7,15.9c5.1-5.3,11.5-8,19.3-8c10.5,0,18.1,3.6,23,10.7c2.7,4,4.1,8,4.3,12.1h-13c-0.8-3.1-1.9-5.4-3.2-7
		c-2.4-2.8-5.9-4.2-10.5-4.2c-4.7,0-8.5,2-11.2,6c-2.7,4-4.1,9.6-4.1,16.8c0,7.3,1.4,12.7,4.3,16.4c2.9,3.6,6.6,5.4,11,5.4
		c4.6,0,8-1.6,10.4-4.7c1.3-1.7,2.4-4.2,3.3-7.5h12.9c-1.1,7.1-4,12.8-8.7,17.2c-4.6,4.4-10.5,6.6-17.8,6.6c-8.9,0-16-3-21.1-9
		c-5.1-6-7.7-14.2-7.7-24.7C249,30.8,251.9,22,257.7,15.9L257.7,15.9z"/>
	<polygon class="st4" points="321.7,74 308.8,74 308.8,9.2 321.7,9.2 321.7,74 	"/>
	<path class="st7" d="M346.6,49.5h15.8L354.6,24L346.6,49.5L346.6,49.5z M347.4,9.2h14.7l22,64.8H370l-4-13.3h-22.9L338.8,74h-13.6
		L347.4,9.2L347.4,9.2z"/>
	<polygon class="st4" points="399.6,74 386.7,74 386.7,9.2 399.6,9.2 399.6,74 	"/>
</g>
</svg>
